<?xml version="1.0" standalone="no"?><!DOCTYPE svg PUBLIC "-//W3C//DTD SVG 1.1//EN" "http://www.w3.org/Graphics/SVG/1.1/DTD/svg11.dtd"><svg t="1681633531946" class="icon" viewBox="0 0 1024 1024" version="1.1" xmlns="http://www.w3.org/2000/svg" p-id="1331" data-spm-anchor-id="a313x.7781069.0.i0" xmlns:xlink="http://www.w3.org/1999/xlink" width="200" height="200"><path d="M511.999502 1024a511.999269 511.999269 0 0 1 0-1023.998537h421.789873A90.209395 90.209395 0 0 1 1024.486389 89.723239v421.789874A512.486887 512.486887 0 0 1 511.999502 1024z m0-964.996717a453.485066 453.485066 0 1 0 453.485066 452.997448V89.723239a31.695193 31.695193 0 0 0-31.695193-31.207574z" fill="#ffffff" p-id="1332" data-spm-anchor-id="a313x.7781069.0.i1" class="selected"></path><path d="M528.578526 769.463221a365.713763 365.713763 0 0 1-191.634012-78.506555L321.828345 682.667154a29.257101 29.257101 0 0 1 31.695192-48.761835l15.603788 10.727604a319.39002 319.39002 0 0 0 159.451201 68.754187 318.902402 318.902402 0 0 0 157.500727-67.291332l16.579024-12.190459a29.257101 29.257101 0 1 1 31.695193 48.761835l-16.091406 10.727604a367.664237 367.664237 0 0 1-189.683538 76.068463z" fill="#ffffff" p-id="1333" data-spm-anchor-id="a313x.7781069.0.i2" class="selected"></path></svg>